<?xml version="1.0" encoding="UTF-8" standalone="no"?>
<!DOCTYPE svg PUBLIC "-//W3C//DTD SVG 1.1//EN" "http://www.w3.org/Graphics/SVG/1.1/DTD/svg11.dtd">
<svg width="100%" height="100%" viewBox="0 0 480 360" version="1.1" xmlns="http://www.w3.org/2000/svg" xmlns:xlink="http://www.w3.org/1999/xlink" xml:space="preserve" xmlns:serif="http://www.serif.com/" style="fill-rule:evenodd;clip-rule:evenodd;stroke-linejoin:round;stroke-miterlimit:1.41421;">
    <g>
        <g transform="matrix(0.397281,0.461989,-0.480778,0.413438,301.73,-5.73023)">
            <path d="M187.16,287.66C187.16,287.66 178.775,288.274 174.586,288.082C170.382,287.888 161.937,286.5 161.937,286.5C142.106,279.417 124.121,273.445 118.842,250.318C117.715,245.383 117.611,240.419 117.671,235.373C117.754,228.37 118.976,221.477 117.096,214.63C116.433,212.213 115.48,210.085 113.939,208.092C113.251,207.202 111.658,205.604 111.658,205.604C111.658,205.604 125.579,208.403 131.665,212.474C138.897,217.313 146.079,220.299 149.149,212.244C153.585,200.606 153.28,176.638 151.195,164.55C150.342,159.61 149.176,154.871 147.274,150.224C147.016,149.594 144.907,145.81 144.907,145.81C144.907,145.81 149.426,146.463 149.84,146.529C155.052,147.357 160.326,149.17 165.204,151.186C178.793,156.802 189.196,164.545 195.989,178.018C199.913,185.799 201.267,196.748 207.267,203.274C210.583,206.879 214.618,208.618 218.996,205.765C220.34,204.889 221.535,203.781 222.444,202.456C222.918,201.766 223.587,200.218 223.587,200.218C223.587,200.218 224.71,201.123 225.249,201.848C229.145,207.088 232.202,221.008 232.413,225.649C233.762,255.303 213.589,276.761 187.16,287.66Z" style="fill:rgb(255,84,0);"/>
            <path d="M183.672,288.014C183.672,288.014 175.259,288.222 171.571,287.874C168.228,287.559 161.543,285.929 161.543,285.929C160.433,285.016 159.272,284.07 158.088,283.095C152.35,278.366 146.098,272.924 142.798,266.908C137.581,257.396 137.745,245.681 142.466,234.87C147.35,223.684 157.032,216.63 163.271,206.329C166.818,200.474 168.245,187.29 167.406,180.491C167.127,178.226 166.597,175.998 165.878,173.834C165.629,173.086 165.353,172.351 165.065,171.617C164.943,171.307 164.695,170.687 164.695,170.687C164.695,170.687 170.62,174.804 172.6,176.769C179.559,183.674 184.593,198.892 186.378,208.613C187.459,214.504 187.054,221.577 190.387,226.79C193.636,231.871 199.375,231.306 203.301,227.303C204.951,225.62 206.12,223.47 206.979,221.293C207.232,220.651 207.426,219.985 207.563,219.309C207.641,218.928 207.74,218.155 207.74,218.155C207.74,218.155 209.985,221.972 210.328,223.739C211.193,228.193 211.773,232.854 211.413,237.396C208.833,269.876 194.741,281.181 183.672,288.014Z" style="fill:rgb(255,243,0);"/>
        </g>
        <path d="M223.316,162.595L258.956,205.791L216.296,222.838L173.636,239.886L198.476,201.241L223.316,162.595Z" style="fill:rgb(132,92,15);fill-rule:nonzero;"/>
        <g transform="matrix(0.73742,0.889829,-0.769965,0.638086,234.667,-81.2263)">
            <path d="M205,165L203.269,163L157.731,163L156,165L156,169L157.731,171L203.269,171L205,169L205,165Z" style="fill:rgb(208,144,15);"/>
        </g>
    </g>
</svg>
