<?xml version="1.0" encoding="UTF-8" standalone="no"?>
<!DOCTYPE svg PUBLIC "-//W3C//DTD SVG 1.1//EN" "http://www.w3.org/Graphics/SVG/1.1/DTD/svg11.dtd">
<svg width="100%" height="100%" viewBox="0 0 480 360" version="1.1" xmlns="http://www.w3.org/2000/svg" xmlns:xlink="http://www.w3.org/1999/xlink" xml:space="preserve" xmlns:serif="http://www.serif.com/" style="fill-rule:evenodd;clip-rule:evenodd;stroke-linejoin:round;stroke-miterlimit:1.41421;">
    <g>
        <path d="M223.316,162.595L258.956,205.791L216.296,222.838L173.636,239.886L198.476,201.241L223.316,162.595Z" style="fill:rgb(255,171,4);fill-rule:nonzero;"/>
        <g transform="matrix(1,0,0,1,-27,1)">
            <path d="M299.5,116L301.184,121.182L306.633,121.182L302.225,124.385L303.908,129.568L299.5,126.365L295.092,129.568L296.775,124.385L292.367,121.182L297.816,121.182L299.5,116Z" style="fill:rgb(168,218,240);"/>
        </g>
        <g transform="matrix(0.739937,-0.672676,0.672676,0.739937,-33.1867,286.584)">
            <path d="M299.5,116L301.184,121.182L306.633,121.182L302.225,124.385L303.908,129.568L299.5,126.365L295.092,129.568L296.775,124.385L292.367,121.182L297.816,121.182L299.5,116Z" style="fill:rgb(168,218,240);"/>
        </g>
        <g transform="matrix(0.945079,0.326842,-0.326842,0.945079,-26.1861,-66.1065)">
            <path d="M299.5,116L301.184,121.182L306.633,121.182L302.225,124.385L303.908,129.568L299.5,126.365L295.092,129.568L296.775,124.385L292.367,121.182L297.816,121.182L299.5,116Z" style="fill:rgb(168,218,240);"/>
        </g>
        <g transform="matrix(0.87277,-0.488132,0.488132,0.87277,-20.1789,218.908)">
            <path d="M299.5,116L301.184,121.182L306.633,121.182L302.225,124.385L303.908,129.568L299.5,126.365L295.092,129.568L296.775,124.385L292.367,121.182L297.816,121.182L299.5,116Z" style="fill:rgb(168,218,240);"/>
        </g>
        <g transform="matrix(1.08654,-0.607693,0.607693,1.08654,-132.469,198.023)">
            <path d="M299.5,116L301.184,121.182L306.633,121.182L302.225,124.385L303.908,129.568L299.5,126.365L295.092,129.568L296.775,124.385L292.367,121.182L297.816,121.182L299.5,116Z" style="fill:rgb(168,218,240);"/>
        </g>
        <g transform="matrix(0.183498,-1.23134,1.23134,0.183498,66.9721,549.33)">
            <path d="M299.5,116L301.184,121.182L306.633,121.182L302.225,124.385L303.908,129.568L299.5,126.365L295.092,129.568L296.775,124.385L292.367,121.182L297.816,121.182L299.5,116Z" style="fill:rgb(168,218,240);"/>
        </g>
        <g transform="matrix(0.643115,-0.433627,0.433627,0.643115,-1.16589,212.615)">
            <path d="M299.5,116L301.184,121.182L306.633,121.182L302.225,124.385L303.908,129.568L299.5,126.365L295.092,129.568L296.775,124.385L292.367,121.182L297.816,121.182L299.5,116Z" style="fill:rgb(168,218,240);"/>
        </g>
        <g transform="matrix(0.68839,0.35742,-0.35742,0.68839,75.9687,-54.8943)">
            <path d="M299.5,116L301.184,121.182L306.633,121.182L302.225,124.385L303.908,129.568L299.5,126.365L295.092,129.568L296.775,124.385L292.367,121.182L297.816,121.182L299.5,116Z" style="fill:rgb(168,218,240);"/>
        </g>
        <g transform="matrix(0.731854,-0.256941,0.256941,0.731854,44.0775,137.739)">
            <path d="M299.5,116L301.184,121.182L306.633,121.182L302.225,124.385L303.908,129.568L299.5,126.365L295.092,129.568L296.775,124.385L292.367,121.182L297.816,121.182L299.5,116Z" style="fill:rgb(168,218,240);"/>
        </g>
    </g>
</svg>
