<?xml version="1.0" standalone="no"?><!-- Generator: Gravit.io --><svg xmlns="http://www.w3.org/2000/svg" xmlns:xlink="http://www.w3.org/1999/xlink" style="isolation:isolate" viewBox="0 0 480 360" width="480" height="360"><defs><clipPath id="_clipPath_1Mrb1cVoBiLSYnJRRU2DLqOMrvHRGrZ0"><rect width="480" height="360"/></clipPath></defs><g clip-path="url(#_clipPath_1Mrb1cVoBiLSYnJRRU2DLqOMrvHRGrZ0)"><g><path d=" M 223.316 162.595 L 241.136 184.193 L 258.956 205.791 L 216.296 222.838 L 173.636 239.886 L 198.476 201.241 L 223.316 162.595 Z " fill="rgb(255,171,4)"/><path d=" M 244.049 156.777 L 250.459 161.026 L 246.209 167.437 L 239.799 163.188 L 244.049 156.777 Z " fill="rgb(122,255,56)"/><path d=" M 267.387 173.881 L 275.064 173.418 L 275.525 181.095 L 267.849 181.557 L 267.387 173.881 Z " fill="rgb(255,255,255)"/><path d=" M 271.286 145.28 L 271.62 152.964 L 263.936 153.298 L 263.602 145.614 L 271.286 145.28 Z " fill="rgb(255,0,0)"/><path d=" M 266.634 122.422 L 273.97 120.114 L 276.278 127.45 L 268.942 129.758 L 266.634 122.422 Z " fill="rgb(122,255,56)"/><path d=" M 234.926 133.908 L 242.616 133.908 L 242.616 141.598 L 234.926 141.598 L 234.926 133.908 Z " fill="rgb(255,244,255)"/><path d=" M 301.287 186.282 L 295.51 181.205 L 300.587 175.427 L 306.364 180.504 L 301.287 186.282 Z " fill="rgb(255,255,255)"/><path d=" M 291.058 146.233 L 298.225 149.024 L 295.434 156.191 L 288.268 153.399 L 291.058 146.233 Z " fill="rgb(122,255,56)"/><path d=" M 211.549 149.024 L 217.246 143.858 L 222.413 149.553 L 216.716 154.72 L 211.549 149.024 Z " fill="rgb(255,0,0)"/><path d=" M 270.293 210.028 L 266.144 203.554 L 272.619 199.403 L 276.768 205.879 L 270.293 210.028 Z " fill="rgb(255,0,0)"/></g></g></svg>
